<svg id="Layer_1" xmlns="http://www.w3.org/2000/svg" width="200" height="54" viewBox="-139 214 200 54"><style>.st0{fill:#ff6c2c}</style><path id="XMLID_3_" class="st0" d="M56.4 247.6c-1.6 4.5-6.2 10.4-9.3 10.4-1 0-1.9-1.2-1.9-2.3 0-1.3.3-2.3.8-3.6l5.1-14.2h5.6l1.9-5h-5.7l5.2-14.2-19.3 2.5-4.3 11.8h-4.8l-1.8 5h4.9l-3.5 9.7c-1.4 4.1-6.6 10.3-9.4 10.3-1.5 0-2.1-.8-2.1-1.9s.3-1.9.7-2.9L32.7 214H14.3l-12 33.2c-1.4 3.7-5.1 10.7-8.8 10.7-1.2 0-1.9-.6-1.9-1.8 0-1.3.3-2.4.7-3.4l7.2-19.8h-18l-1.6 2.9c-1.5-2.4-6.2-3.8-10.5-3.8-10.3 0-20.6 6.1-23.8 15.5-1.6 4.6-5 10.5-7.4 10.5-.9 0-1.4-.8-1.4-1.9 0-3.2 3.9-8.2 3.9-13.6 0-5.9-5.1-10.5-12.8-10.5-7.4 0-10.8 2.6-14.6 6.1-2.5-3.8-6.1-6.1-12.1-6.1-5.8 0-9.4 2.1-12.1 4.1l.9-3.1h-16.6l-12.4 34.1h18.5l6.2-17.2c2-5.5 4.5-9.8 7.3-9.8 1.4 0 2.5.9 2.5 2.5 0 1.5-.3 2.4-.8 3.8l-7.4 20.6h18.4l6.2-17.2c1.6-4.4 4.6-9.5 7.7-9.5 1.6 0 2.3.8 2.3 2.3 0 3.8-4.9 10-4.9 16.3 0 5.7 5 9 11.5 9 7 0 12.8-4 16.9-9.5 2.1 6.2 8.3 9.5 15.1 9.5 7.8 0 13.6-5.6 13.6-5.6 1.6 3.5 5.9 5.6 10.4 5.6 5.6 0 10.9-3.3 15.1-7.6 1 4.9 5.8 7.6 11 7.6 6.2 0 11.8-3.4 16.1-7.7.8 4.5 5 7.7 11 7.7 9.9 0 20.1-9.5 23.4-18.7l-4.7-1.6zm-91.7 14.5c-2 0-3.4-2-3.4-4.2 0-5.1 7.2-20.4 12.5-20.4 1.9 0 3 1.6 3 4 .1 5.3-6.2 20.6-12.1 20.6z"/></svg>