<?xml version="1.0" encoding="utf-8"?>
<!-- Generator: Adobe Illustrator 19.0.0, SVG Export Plug-In . SVG Version: 6.00 Build 0)  -->
<svg version="1.1" id="Layer_1" xmlns="http://www.w3.org/2000/svg" xmlns:xlink="http://www.w3.org/1999/xlink" x="0px" y="0px"
	 width="200px" height="54px" viewBox="0 0 200 54" style="enable-background:new 0 0 200 54;" xml:space="preserve">
<style type="text/css">
	.st0{fill:#FFFFFF;}
</style>
<path id="XMLID_3_" class="st0" d="M195.4,33.6c-1.6,4.5-6.2,10.4-9.3,10.4c-1,0-1.9-1.2-1.9-2.3c0-1.3,0.3-2.3,0.8-3.6l5.1-14.2
	h5.6l1.9-5h-5.7l5.2-14.2l-19.3,2.5L173.5,19h-4.8l-1.8,5h4.9l-3.5,9.7l0,0c-1.4,4.1-6.6,10.3-9.4,10.3c-1.5,0-2.1-0.8-2.1-1.9
	c0-1.1,0.3-1.9,0.7-2.9L171.7,0h-18.4l-12,33.2l0,0c-1.4,3.7-5.1,10.7-8.8,10.7c-1.2,0-1.9-0.6-1.9-1.8c0-1.3,0.3-2.4,0.7-3.4
	l7.2-19.8h-18l-1.6,2.9c-1.5-2.4-6.2-3.8-10.5-3.8c-10.3,0-20.6,6.1-23.8,15.5l0,0c-1.6,4.6-5,10.5-7.4,10.5c-0.9,0-1.4-0.8-1.4-1.9
	c0-3.2,3.9-8.2,3.9-13.6c0-5.9-5.1-10.5-12.8-10.5c-7.4,0-10.8,2.6-14.6,6.1c-2.5-3.8-6.1-6.1-12.1-6.1c-5.8,0-9.4,2.1-12.1,4.1
	L29,19H12.4L0,53.1h18.5l6.2-17.2c2-5.5,4.5-9.8,7.3-9.8c1.4,0,2.5,0.9,2.5,2.5c0,1.5-0.3,2.4-0.8,3.8l-7.4,20.6h18.4l6.2-17.2
	c1.6-4.4,4.6-9.5,7.7-9.5c1.6,0,2.3,0.8,2.3,2.3c0,3.8-4.9,10-4.9,16.3c0,5.7,5,9,11.5,9c7,0,12.8-4,16.9-9.5
	c2.1,6.2,8.3,9.5,15.1,9.5c7.8,0,13.6-5.6,13.6-5.6c1.6,3.5,5.9,5.6,10.4,5.6c5.6,0,10.9-3.3,15.1-7.6c1,4.9,5.8,7.6,11,7.6
	c6.2,0,11.8-3.4,16.1-7.7c0.8,4.5,5,7.7,11,7.7c9.9,0,20.1-9.5,23.4-18.7L195.4,33.6z M103.7,48.1c-2,0-3.4-2-3.4-4.2
	c0-5.1,7.2-20.4,12.5-20.4c1.9,0,3,1.6,3,4C115.9,32.8,109.6,48.1,103.7,48.1z"/>
</svg>
